<?xml version="1.0" encoding="utf-8"?>
<!-- Generator: Adobe Illustrator 24.0.0, SVG Export Plug-In . SVG Version: 6.00 Build 0)  -->
<svg version="1.1" id="Layer_1" xmlns="http://www.w3.org/2000/svg" xmlns:xlink="http://www.w3.org/1999/xlink" x="0px" y="0px"
	 viewBox="0 0 117.2 62.6" style="enable-background:new 0 0 117.2 62.6;" xml:space="preserve">
<style type="text/css">
	.st0{fill:#14A9C0;}
	.st1{fill:#FFFFFF;}
</style>
<g>
	<path class="st0" d="M20.7,59.9v0.3h-6.4L5.6,50.1v10.1H0.3V36.5h5.3v9.8l7.9-9.8h6.4v0.1L10.3,48L20.7,59.9z"/>
	<path class="st0" d="M18.3,51.9c0-5,3.6-8.8,9.1-8.8c5.6,0,9.2,3.7,9.2,8.8c0,5.3-3.5,8.9-9.2,8.9C21.7,60.7,18.3,57.2,18.3,51.9z
		 M31.6,51.9c0-2.1-1.3-4.4-4.2-4.4c-2.9,0-4.2,2.3-4.2,4.4c0,2.3,1.2,4.5,4.2,4.5C30.4,56.4,31.6,54.2,31.6,51.9z"/>
	<path class="st0" d="M48.2,43.6v4.1h-4.3v6.4c0,1.8,1,2.2,1.9,2.2c0.6,0,1.5-0.1,2-0.4l1.1,4.1c-1.2,0.5-2.2,0.6-3.5,0.7
		c-3.6,0.2-6.4-1.4-6.4-6.6v-6.4h-3v-4.1h3v-4.1l4.9-0.5v4.7H48.2z"/>
	<path class="st0" d="M48.3,51.9c0-5,3.6-8.8,9.1-8.8c5.6,0,9.2,3.7,9.2,8.8c0,5.3-3.5,8.9-9.2,8.9C51.8,60.7,48.3,57.2,48.3,51.9z
		 M61.7,51.9c0-2.1-1.3-4.4-4.2-4.4c-2.9,0-4.2,2.3-4.2,4.4c0,2.3,1.2,4.5,4.2,4.5C60.4,56.4,61.7,54.2,61.7,51.9z"/>
	<path class="st0" d="M77.7,43.1c4.9,0,8.3,3.3,8.3,8.7c0,5.2-3.3,8.9-8.3,8.9c-2.1,0-4-0.4-5.5-2.6l-0.3,2.1h-4.4V36.5h4.9v9
		C73.9,43.7,75.7,43.1,77.7,43.1z M72.5,51.8c0,3.2,2.3,4.3,4.5,4.3c2.6,0,4.1-1.9,4.1-4.3c0-2.5-1.6-4.3-4.1-4.3
		C74.8,47.5,72.5,49,72.5,51.8z"/>
	<path class="st0" d="M96.4,43.1c1.6,0,2.9,0.5,4.1,1.5l-2,3.9c-0.8-0.6-1.7-0.8-2.7-0.8c-2.1,0-3.9,1.4-3.9,3.9v8.7H87V43.5h4.5
		l0.4,1.8C93,43.7,94.5,43.1,96.4,43.1z"/>
	<path class="st0" d="M117.2,60.2h-4.4l-0.3-2.1c-1.1,1.9-3.5,2.6-5.1,2.6c-5,0-8.6-3.3-8.6-8.9c0-5.4,3.7-8.7,8.5-8.7
		c2.2,0,4.2,0.8,5.2,2.3l0.2-1.9h4.6V60.2z M103.6,51.8c0,2.8,2,4.4,4.4,4.4c2.7,0,4.4-2.2,4.4-4.2c0-2.4-1.6-4.6-4.4-4.6
		C105.6,47.4,103.6,49.1,103.6,51.8z"/>
</g>
<circle class="st0" cx="57.5" cy="51.9" r="5.9"/>
<g>
	<path class="st1" d="M55.3,53.5c0.5-0.7,0.9-1.3,1.4-1.9c1.3-1.6,2.6-3.2,4.5-4.3c0.4-0.3,0.9-0.5,1.4-0.7c0.1-0.1,0.3,0,0.5,0
		c0,0,0,0.1,0,0.1c-0.3,0.3-0.6,0.6-0.9,0.9c-2.2,2.1-4,4.5-5.5,7.1c-0.4,0.8-0.9,1.5-1.3,2.2c-0.1,0.2-0.3,0.2-0.4,0
		c-0.3-0.7-0.7-1.3-1-2c-0.2-0.5-0.4-0.9-0.7-1.4c-0.3-0.5-0.5-1-1.3-0.9c0.1-0.4,0.2-0.6,0.5-0.7c0.6-0.4,1.2-0.3,1.7,0.2
		c0.3,0.3,0.6,0.8,0.9,1.1C55.2,53.3,55.2,53.4,55.3,53.5z"/>
</g>
<circle class="st0" cx="61.7" cy="42.4" r="2.3"/>
</svg>
